<svg xmlns="http://www.w3.org/2000/svg" viewBox="0 0 128 128" width="128" height="128">
  <!-- ground/grass — generated by game/tools/assets.mjs; edit the generator, not this file -->
  <rect x="0" y="0" width="128" height="128" fill="#7a9b4e" stroke="none" stroke-width="0" stroke-linecap="round" stroke-linejoin="round"/>
  <path d="M 12 20 l 2 -7 l 2 7 M 16 20 l 2 -5 l 2 5" fill="none" stroke="#5f8a3e" stroke-width="1.2" stroke-linecap="round" stroke-linejoin="round"/>
  <path d="M 40 8 l 2 -7 l 2 7 M 44 8 l 2 -5 l 2 5" fill="none" stroke="#5f8a3e" stroke-width="1.2" stroke-linecap="round" stroke-linejoin="round"/>
  <path d="M 70 30 l 2 -7 l 2 7 M 74 30 l 2 -5 l 2 5" fill="none" stroke="#5f8a3e" stroke-width="1.2" stroke-linecap="round" stroke-linejoin="round"/>
  <path d="M 100 14 l 2 -7 l 2 7 M 104 14 l 2 -5 l 2 5" fill="none" stroke="#5f8a3e" stroke-width="1.2" stroke-linecap="round" stroke-linejoin="round"/>
  <path d="M 24 60 l 2 -7 l 2 7 M 28 60 l 2 -5 l 2 5" fill="none" stroke="#5f8a3e" stroke-width="1.2" stroke-linecap="round" stroke-linejoin="round"/>
  <path d="M 58 72 l 2 -7 l 2 7 M 62 72 l 2 -5 l 2 5" fill="none" stroke="#5f8a3e" stroke-width="1.2" stroke-linecap="round" stroke-linejoin="round"/>
  <path d="M 92 58 l 2 -7 l 2 7 M 96 58 l 2 -5 l 2 5" fill="none" stroke="#5f8a3e" stroke-width="1.2" stroke-linecap="round" stroke-linejoin="round"/>
  <path d="M 116 90 l 2 -7 l 2 7 M 120 90 l 2 -5 l 2 5" fill="none" stroke="#5f8a3e" stroke-width="1.2" stroke-linecap="round" stroke-linejoin="round"/>
  <path d="M 10 104 l 2 -7 l 2 7 M 14 104 l 2 -5 l 2 5" fill="none" stroke="#5f8a3e" stroke-width="1.2" stroke-linecap="round" stroke-linejoin="round"/>
  <path d="M 46 112 l 2 -7 l 2 7 M 50 112 l 2 -5 l 2 5" fill="none" stroke="#5f8a3e" stroke-width="1.2" stroke-linecap="round" stroke-linejoin="round"/>
  <path d="M 80 100 l 2 -7 l 2 7 M 84 100 l 2 -5 l 2 5" fill="none" stroke="#5f8a3e" stroke-width="1.2" stroke-linecap="round" stroke-linejoin="round"/>
  <path d="M 30 88 l 2 -7 l 2 7 M 34 88 l 2 -5 l 2 5" fill="none" stroke="#5f8a3e" stroke-width="1.2" stroke-linecap="round" stroke-linejoin="round"/>
  <ellipse cx="64" cy="44" rx="9" ry="4" fill="#5f8a3e" stroke="none" stroke-width="0" stroke-linecap="round" stroke-linejoin="round"/>
  <ellipse cx="20" cy="40" rx="9" ry="4" fill="#5f8a3e" stroke="none" stroke-width="0" stroke-linecap="round" stroke-linejoin="round"/>
  <ellipse cx="104" cy="76" rx="9" ry="4" fill="#5f8a3e" stroke="none" stroke-width="0" stroke-linecap="round" stroke-linejoin="round"/>
</svg>
