<svg xmlns="http://www.w3.org/2000/svg" viewBox="0 0 128 128" width="128" height="128">
  <!-- faces/wall-plank — generated by game/tools/assets.mjs; edit the generator, not this file -->
  <rect x="0" y="0" width="128" height="128" fill="#b48a5a" stroke="none" stroke-width="0" stroke-linecap="round" stroke-linejoin="round"/>
  <line x1="0" y1="15" x2="128" y2="15" stroke="#8a6a4a" stroke-width="1.4" stroke-linecap="round" stroke-linejoin="round"/>
  <line x1="0" y1="2" x2="0" y2="14" stroke="#8a6a4a" stroke-width="1.2" stroke-linecap="round" stroke-linejoin="round"/>
  <line x1="0" y1="31" x2="128" y2="31" stroke="#8a6a4a" stroke-width="1.4" stroke-linecap="round" stroke-linejoin="round"/>
  <line x1="37" y1="18" x2="37" y2="30" stroke="#8a6a4a" stroke-width="1.2" stroke-linecap="round" stroke-linejoin="round"/>
  <line x1="0" y1="47" x2="128" y2="47" stroke="#8a6a4a" stroke-width="1.4" stroke-linecap="round" stroke-linejoin="round"/>
  <line x1="74" y1="34" x2="74" y2="46" stroke="#8a6a4a" stroke-width="1.2" stroke-linecap="round" stroke-linejoin="round"/>
  <line x1="0" y1="63" x2="128" y2="63" stroke="#8a6a4a" stroke-width="1.4" stroke-linecap="round" stroke-linejoin="round"/>
  <line x1="111" y1="50" x2="111" y2="62" stroke="#8a6a4a" stroke-width="1.2" stroke-linecap="round" stroke-linejoin="round"/>
  <line x1="0" y1="79" x2="128" y2="79" stroke="#8a6a4a" stroke-width="1.4" stroke-linecap="round" stroke-linejoin="round"/>
  <line x1="20" y1="66" x2="20" y2="78" stroke="#8a6a4a" stroke-width="1.2" stroke-linecap="round" stroke-linejoin="round"/>
  <line x1="0" y1="95" x2="128" y2="95" stroke="#8a6a4a" stroke-width="1.4" stroke-linecap="round" stroke-linejoin="round"/>
  <line x1="57" y1="82" x2="57" y2="94" stroke="#8a6a4a" stroke-width="1.2" stroke-linecap="round" stroke-linejoin="round"/>
  <line x1="0" y1="111" x2="128" y2="111" stroke="#8a6a4a" stroke-width="1.4" stroke-linecap="round" stroke-linejoin="round"/>
  <line x1="94" y1="98" x2="94" y2="110" stroke="#8a6a4a" stroke-width="1.2" stroke-linecap="round" stroke-linejoin="round"/>
  <line x1="0" y1="127" x2="128" y2="127" stroke="#8a6a4a" stroke-width="1.4" stroke-linecap="round" stroke-linejoin="round"/>
  <line x1="3" y1="114" x2="3" y2="126" stroke="#8a6a4a" stroke-width="1.2" stroke-linecap="round" stroke-linejoin="round"/>
</svg>
